/* XPM */
static char *bag_coins1628169507[] = {
/* columns rows colors chars-per-pixel */
"32 32 6 1 ",
"  c None",
". c black",
"X c #800000",
"o c #808000",
"O c yellow",
"+ c #808080",
/* pixels */
"                                ",
"                                ",
"                                ",
"                                ",
"                                ",
"                                ",
"                                ",
"                                ",
"                                ",
"                                ",
"                                ",
"                                ",
"              .....             ",
"              .Xooo             ",
"            ..Xo+++o.           ",
"            ooooooo             ",
"          .o+++oX..             ",
"          oooo+++oo             ",
"      ...oOo.o+++++o...         ",
"      o...ooo++++++o..o         ",
"    .oOo...o+++++++o.oOo.       ",
"    ooooo...oo++++Oo..o         ",
"  .oOo.oOo...o+++OOo...         ",
"    o...o.....ooooo             ",
"    ...............             ",
"                                ",
"                                ",
"                                ",
"                                ",
"                                ",
"                                ",
"                                "
};
