/* XPM */
static char *result[] = {
/* columns rows colors chars-per-pixel */
"32 32 89 1 ",
"  c black",
". c #090909",
"X c gray11",
"o c #272727",
"O c #282828",
"+ c gray19",
"@ c #313131",
"# c #323232",
"$ c #343434",
"% c gray21",
"& c #373737",
"* c #393939",
"= c #3C3C3C",
"- c #3E3E3E",
"; c #3F3F3F",
": c gray25",
"> c gray26",
", c #434343",
"< c #444444",
"1 c gray27",
"2 c #464646",
"3 c gray28",
"4 c #484848",
"5 c #494949",
"6 c gray29",
"7 c #4B4B4B",
"8 c #4C4C4C",
"9 c gray30",
"0 c #4E4E4E",
"q c gray31",
"w c #505050",
"e c #515151",
"r c gray32",
"t c #535353",
"y c gray33",
"u c #555555",
"i c #565656",
"p c gray34",
"a c #585858",
"s c gray35",
"d c #5A5A5A",
"f c #5B5B5B",
"g c gray36",
"h c #5D5D5D",
"j c gray37",
"k c #5F5F5F",
"l c #606060",
"z c gray38",
"x c #626262",
"c c #646464",
"v c #656565",
"b c gray40",
"n c #686868",
"m c DimGray",
"M c #6A6A6A",
"N c gray42",
"B c #6C6C6C",
"V c #6D6D6D",
"C c gray44",
"Z c #717171",
"A c gray45",
"S c #777777",
"D c gray47",
"F c #797979",
"G c gray48",
"H c #7B7B7B",
"J c #7C7C7C",
"K c gray49",
"L c gray52",
"P c #8B8B8B",
"I c gray55",
"U c #8D8D8D",
"Y c #8E8E8E",
"T c gray56",
"R c #909090",
"E c gray57",
"W c #929292",
"Q c #939393",
"! c gray58",
"~ c #959595",
"^ c gray59",
"/ c #979797",
"( c #989898",
") c gray60",
"_ c #9B9B9B",
"` c gray61",
"' c #A4A4A4",
"] c #A5A5A5",
"[ c gray65",
/* pixels */
"                                ",
" .XoOOOOOOOooooooooooooooooOoX. ",
" XfKKJJJJJJJJJJJJJJJJJJJJJJKKfX ",
" oK'~PIIIIIUTRRRRRRTTTTTTTT(]Ko ",
" OK~mwerrrrufjjjjjjhhggggggZ(KO ",
" OJPw+@$%%%*;,>>>>>18qqqq6,gTJo ",
" OJIe@#%=;;:>,,,,,>8lNMMNk6gTJo ",
" OJIr$%=>111<<<<<,,eBGFFGNqgTJo ",
" OJIr%=><11<<<<<<,,eBFFFFMqgTJo ",
" OJIr&:11<<37000072eNFDDFMqgTJo ",
" OJIr&;11<<7dxxxxd6wNFDDFMqgTJo ",
" OJIe%;1<<<0xBBBBz9wNFDDFMqgTJo ",
" OJIe%;<<<,0xBBBBz9wNFDDFMqgTJo ",
" oJYa-166410zNNNNz8wNFDDFMqgTJo ",
" oHWbqryyq39zNNNNz8wNFDDFMqgTJo ",
" oH~Vaasst59zNNNNz8wNFDDFMqgTJo ",
" oH~Vpasst59zNNNNz8wNFDDFMqgTJo ",
" oH!Vppsst49zNNNNz8wNFDDFMqgTJo ",
" oH!Vppsst49zNNNNz8wNFDDFMqgTJo ",
" oH!Vppsst49zNNNNz8wNFDDFMqgTJo ",
" oH!Vppsst49zNNNNz8wNFDDFMqgTJo ",
" oH!Vppsst49zNNNNz8wNFDDFMqgTJo ",
" oH!Vppsst49zNNNNz8wNFDDFMqgTJo ",
" oH!Vppsst49zNNNNz8wNFDDFMqgTJo ",
" oH!Vppsst49zNNNNz8wNFDDFMqgTJo ",
" oH!Biiaar38lNMMNl7qMDDDDm9fTJo ",
" oH!Nuippe27lMMMMk60mDSSDn9fYJo ",
" oJ_KNBVVmzcAHHHHAcbHLLLLGvC/KO ",
" oK[_!!~~QEW/))))^WW)````)W/]Ko ",
" XfKJHHHHHHHHHHHHHHHHGGGGHHKKfX ",
" .XooooooooooooooooooooooooOoX. ",
"                                "
};
