/* XPM */
static char *result[] = {
/* columns rows colors chars-per-pixel */
"32 32 104 2 ",
"   c #543F3F",
".  c #553F3F",
"X  c #57403C",
"o  c #57403D",
"O  c #55403F",
"+  c #4E3E46",
"@  c #4F3F46",
"#  c #4F3F47",
"$  c #533F41",
"%  c #543F41",
"&  c #513F44",
"*  c #513F45",
"=  c #503F46",
"-  c #513F46",
";  c #503F47",
":  c #524044",
">  c #534045",
",  c #514046",
"<  c #504047",
"1  c #514047",
"2  c #524047",
"3  c #534147",
"4  c #554145",
"5  c #564144",
"6  c #574144",
"7  c #554146",
"8  c #544147",
"9  c #564247",
"0  c #574247",
"q  c #5B4342",
"w  c #5F4440",
"e  c #584347",
"r  c #5F4544",
"t  c #594348",
"y  c #5B4449",
"u  c #5B4549",
"i  c #5C4549",
"p  c #5E464A",
"a  c #5F464A",
"s  c #5F474A",
"d  c #5F464B",
"f  c #5F474B",
"g  c #604543",
"h  c #654743",
"j  c #604544",
"k  c #654744",
"l  c #664744",
"z  c #674947",
"x  c #694A45",
"c  c #6A4A45",
"v  c #604749",
"b  c #614749",
"n  c #654949",
"m  c #65494B",
"M  c #6E4C48",
"N  c #6F4C48",
"B  c #6F4D48",
"V  c #6C4C4A",
"C  c #6D4C4A",
"Z  c #6F4D4B",
"A  c #704D48",
"S  c #704D4B",
"D  c #704E4B",
"F  c #714E4B",
"G  c #724E4A",
"H  c #734F4A",
"J  c #744F4B",
"K  c #724E4C",
"L  c #75504B",
"P  c #76504B",
"I  c #77514B",
"U  c #75504C",
"Y  c #76504C",
"T  c #76514C",
"R  c #77514C",
"E  c #74504E",
"W  c #78514C",
"Q  c #79524D",
"!  c #7A524D",
"~  c #79524E",
"^  c #7C544E",
"/  c #7D544E",
"(  c #7D544F",
")  c #7E554F",
"_  c #725050",
"`  c #735050",
"'  c #7D5551",
"]  c #7F5550",
"[  c #7E5553",
"{  c #7E5653",
"}  c #7F5653",
"|  c #805650",
" . c #805651",
".. c #815651",
"X. c #835752",
"o. c #855852",
"O. c #885A54",
"+. c #895A54",
"@. c #895B54",
"#. c #895B55",
"$. c #8A5B55",
"%. c #8B5B55",
"&. c #8C5C56",
"*. c #8E5D57",
/* pixels */
"+ t C R R R R R R R R C e + @ = @ t C R R R R R R R R C e + @ 1 ",
"t v Z R R R R R R R R F m y 3 2 9 b S R R R R R R R R F m y 3 = ",
"C Z J R R R R R R P P Q ' _ u 9 n D L R R R R R R P P Q ' _ u @ ",
"R R R P Y R R R R P P / $.} d e C W R P Y R R R R P P / $.} f @ ",
"R R R Y Y R R R R P P / @.} a e C W R Y Y R R R R P P / @.} s @ ",
"R R R R R R R R R P P / +.{ p e V R R R R R R R R P P / +.[ s @ ",
"R R R R R R R R R P P / +.{ p e V R R R R R R R R P P / +.[ s @ ",
"R R R R R R R R R P P ^ +.{ p e V R R R R R R R R P P ^ +.[ s @ ",
"R R R R R R R R R P P ^ O.{ p e V R R R R R R R R P P ^ O.[ s @ ",
"R R P P P P P P P R ! ..%.{ a e C W R P P P P P P R ! ..%.{ s @ ",
"R R P P P P P P P ! X.$.*.} p e C W I P P P P P P ! X.$.*.{ s @ ",
"N G Q ( ( ( ( ^ ^ ..$.&.o.E y 0 z H ! ( ( ( ( ^ ^ ..$.&.o.E i @ ",
"w x ) #.#.O.O.O.O.$.*.o.A r 7 > q c ] #.#.O.O.O.O.$.*.o.A r 4 ; ",
". g U .... . . . .....U g $ * * % g T .... . . . .....U g $ * ; ",
"& 5 j h h h h h h h h g 5 * = - * 6 j h h h h h h h h g 5 * - < ",
"# > q w w w w w w w w q > # ; ; ; > q w w w w w w w w q > # ; 1 ",
"@ 0 z B N M M M M N B z 0 @ = = @ 0 z B N M M M M N B z 0 @ = 1 ",
"t b D W W R R R R W W K m u 3 2 0 b D W W R R R R W W K m y 8 = ",
"C S L R R R R R R R R ~ ' ` u 9 n D L R R R R R R R R ~ ' ` u @ ",
"R R R P Y R R R R P P / $.} d e C W R P Y R R R R P P / $.} f @ ",
"R R R Y Y R R R R P P / @.} a e C W R Y Y R R R R P P / @.} s @ ",
"R R R R R R R R R P P / +.{ p e V R R R R R R R R P P / +.[ s @ ",
"R R R R R R R R R P P / +.{ p e V R R R R R R R R P P / +.[ s @ ",
"R R R R R R R R R P P ^ +.{ p e V R R R R R R R R P P ^ +.[ s @ ",
"R R R R R R R R R P P ^ O.{ p e V R R R R R R R R P P ^ O.[ s @ ",
"R R P P P P P P P R ! ..%.{ a e C W R P P P P P P R ! ..%.{ s @ ",
"R R P P P P P P P ! X.$.*.} p e C W I P P P P P P ! X.$.*.{ s @ ",
"N G Q ( ( ( ( ^ ^ ..$.&.o.E y 0 z H ! ( ( ( ( ^ ^ ..$.&.o.E i @ ",
"w x ) #.#.O.O.O.O.$.*.o.A r 7 > q c ] #.#.O.O.O.O.$.*.o.A r 4 ; ",
"  g U ....| | | |  . .U g $ * * $ g Y ....| | | |  . .U g $ * ; ",
"& 5 j l k k k k k k h j 5 * = - * 6 j l k k k k k k h j 5 * = < ",
"; : O X o o o o o o X O : ; ; ; ; : O X o o o o o o X O : ; ; , "
};
