/* XPM */
static char *_b0656b6c8684d7a97626f3131f90aacWKYxwkqt7tjlSceg[] = {
/* columns rows colors chars-per-pixel */
"32 32 7 1 ",
"  c None",
". c black",
"X c #800000",
"o c #808000",
"O c #808080",
"+ c #C0C0C0",
"@ c white",
/* pixels */
"                                ",
"                                ",
"          .....                 ",
"          ..XXX                 ",
"          .XXXXX.               ",
"            XXOX.               ",
"            .OOO.......         ",
"            OOOOOOOOOOO         ",
"          .OOOOO+++++++O.       ",
"          OOOOO++++++++O.       ",
"        .OOO+++++++++++O.       ",
"        .OO++++++++++++O.       ",
"        .O++++@@@@@@@@@O.       ",
"        .O++++@+OOOOOOOO.       ",
"        .O++++@O.........       ",
"        .OO+++@+OOOO.OOO.       ",
"        .OOO++@@@@@O.O@O.       ",
"          OOO++++++OXO+O.       ",
"          .OOOOOXXXoooXX.       ",
"          .XOOOOOOOOOOOX.       ",
"        XX.XXXXOOOOOOOOO.       ",
"        XX.XOOOOOOOOOOOO.       ",
"    XXXXXX.OOOOO+++++++O.       ",
"      XXXX.OOOOOOOOOOOO         ",
"      XXXX.OOOOO.......         ",
"          .OOOO                 ",
"          .OOO.                 ",
"          ..O                   ",
"          ...                   ",
"                                ",
"                                ",
"                                "
};
