/* XPM */
static char *_246abe9a527463accd48606d2e60e006xLPTml7PaOldZyK[] = {
/* columns rows colors chars-per-pixel */
"32 32 7 1 ",
"  c None",
". c black",
"X c #800000",
"o c #808000",
"O c #808080",
"+ c #C0C0C0",
"@ c white",
/* pixels */
"                                ",
"                                ",
"              .                 ",
"              X                 ",
"          ...XXX.               ",
"          ..XXOX.               ",
"          .XXOOO.......         ",
"          .XOOOOOOOOOOO         ",
"          .OOOOO+++++++O.       ",
"          OOO++++++++++O.       ",
"        .OOO++@@@@@@@@@O.       ",
"        .OO+++@+OOOOOOOO.       ",
"        .O++++@O.........       ",
"        .O++++@+OOOO.OOO.       ",
"        .O++++@@@@@O.O@O.       ",
"        .OO++++++@@+O+@O.       ",
"        .OOO++++++@@@@@O.       ",
"          OOOOOOOO+++++O.       ",
"          .OOOOOXXXoooXX.       ",
"          .XOOOOOOOOOOOX.       ",
"        XX.XXXXOOOOOOOOO.       ",
"        XXOOOOOOOOOOOOOO.       ",
"    XXXX.OOOOO+++++++++O.       ",
"      XX..OOOOOOOOOOOOOO.       ",
"      XX.............OOO.       ",
"                      O..       ",
"                      ...       ",
"                                ",
"                                ",
"                                ",
"                                ",
"                                "
};
