/* XPM */
static char *_22a8cc73b90452bb1d4787eebfebca9OkVxNB7tzQaClcGx[] = {
/* columns rows colors chars-per-pixel */
"16 16 7 1 ",
"  c None",
". c #060608",
"X c #AC3232",
"o c #DF7126",
"O c #847E87",
"+ c #9BADB7",
"@ c white",
/* pixels */
"       .        ",
"     ..X.       ",
"     .XO....    ",
"     .OO++++.   ",
"    .O+@@@@@.   ",
"    .++@.....   ",
"    .++@@@.@.   ",
"    .O+++@@@.   ",
"     .OOXXoX.   ",
"     .XXOOOO.   ",
"    X.OOOOOO.   ",
"   XX.OO++++.   ",
"  XXXX......    ",
"                ",
"                ",
"                "
};
