/* XPM */
static char *result[] = {
/* columns rows colors chars-per-pixel */
"16 16 6 1 ",
"  c black",
". c #33703B",
"X c #37773F",
"o c #3E8948",
"O c #62B76D",
"+ c None",
/* pixels */
"++++++++++++++++",
"++++++++++++++++",
"++++++++++++++++",
"++++++++++++++++",
"+++++        +++",
"+++  .oooooo. ++",
"++ ..oooooooo. +",
"+ .ooooooooooo. ",
" .ooOOooooooooo ",
" ooOOXXXXXX  oo ",
" oXXXX  XXX  Xo ",
" .XXXX  XXXXXX. ",
"+ ..XXXXXXXX.. +",
"++  .XXXXXX.  ++",
"++++        ++++",
"++++++++++++++++"
};
