/* XPM */
static char *knight_idle_anim_f1[] = {
/* columns rows colors chars-per-pixel */
"32 32 7 1 ",
"  c black",
". c #800000",
"X c #808000",
"o c #808080",
"O c #C0C0C0",
"+ c white",
"@ c None",
/* pixels */
"@@@@@@@@@@     @@@@@@@@@@@@@@@@@",
"@@@@@@@@@@  ...@@@@@@@@@@@@@@@@@",
"@@@@@@@@@@ ..... @@@@@@@@@@@@@@@",
"@@@@@@@@@@@@..o. @@@@@@@@@@@@@@@",
"@@@@@@@@@@@@ ooo       @@@@@@@@@",
"@@@@@@@@@@@@ooooooooooo@@@@@@@@@",
"@@@@@@@@@@ oooooOOOOOOOo @@@@@@@",
"@@@@@@@@@@oooooOOOOOOOOo @@@@@@@",
"@@@@@@@@ oooOOOOOOOOOOOo @@@@@@@",
"@@@@@@@@ ooOOOOOOOOOOOOo @@@@@@@",
"@@@@@@@@ oOOOO+++++++++o @@@@@@@",
"@@@@@@@@ oOOOO+Ooooooooo @@@@@@@",
"@@@@@@@@ oOOOO+o         @@@@@@@",
"@@@@@@@@ ooOOO+Ooooo ooo @@@@@@@",
"@@@@@@@@ oooOO+++++o o+o @@@@@@@",
"@@@@@@@@  oooOOOOOOo.oOo @@@@@@@",
"@@@@@@@@   ooooo...XXX.. @@@@@@@",
"@@@@@@@@@@ .ooooooooooo. @@@@@@@",
"@@@@@@@@@@ ....ooooooooo @@@@@@@",
"@@@@@@@@@@ .oooooooooooo @@@@@@@",
"@@@@@@@@.. oooooOOOOOOOo @@@@@@@",
"@@@@@@@@.. ooooooooooooo @@@@@@@",
"@@@@@@.... ooooo     ooo @@@@@@@",
"@@@@@@.... oooo..   ooo@@@@@@@@@",
"@@@@@@.... ooo ... ooo @@@@@@@@@",
"@@@@@@@@@@  o@@@@@  o@@@@@@@@@@@",
"@@@@@@@@@@   @@@@@   @@@@@@@@@@@",
"@@@@@@@@@@@@@@@@@@@@@@@@@@@@@@@@",
"@@@@@@@@@@@@@@@@@@@@@@@@@@@@@@@@",
"@@@@@@@@@@@@@@@@@@@@@@@@@@@@@@@@",
"@@@@@@@@@@@@@@@@@@@@@@@@@@@@@@@@",
"@@@@@@@@@@@@@@@@@@@@@@@@@@@@@@@@"
};
