/* XPM */
static char *_07639142af2460aa0bda8187e19092bdVnYKbzqjaHTYELZ[] = {
/* columns rows colors chars-per-pixel */
"16 16 7 1 ",
"  c None",
". c #060608",
"X c #AC3232",
"o c #DF7126",
"O c #847E87",
"+ c #9BADB7",
"@ c white",
/* pixels */
"                ",
"     ...        ",
"     .XX.       ",
"      .O....    ",
"     .OO++++.   ",
"    .O++++++.   ",
"    .++@@@@@.   ",
"    .++@.....   ",
"    .O+@@@.@.   ",
"    ..XXXXoX.   ",
"     .OOOOOO.   ",
"    X.OO...O.   ",
"   XX.O.X.O.    ",
"     ..  ..     ",
"                ",
"                "
};
