/* XPM */
static char *knight_idle_anim_f5[] = {
/* columns rows colors chars-per-pixel */
"32 32 7 1 ",
"  c black",
". c #800000",
"X c #808000",
"o c #808080",
"O c #C0C0C0",
"+ c white",
"@ c None",
/* pixels */
"@@@@@@@@@@@@@@ @@@@@@@@@@@@@@@@@",
"@@@@@@@@@@@@@@.@@@@@@@@@@@@@@@@@",
"@@@@@@@@@@   ... @@@@@@@@@@@@@@@",
"@@@@@@@@@@  ..o. @@@@@@@@@@@@@@@",
"@@@@@@@@@@ ..ooo       @@@@@@@@@",
"@@@@@@@@@@ .ooooooooooo@@@@@@@@@",
"@@@@@@@@@@ oooooOOOOOOOo @@@@@@@",
"@@@@@@@@@@oooooOOOOOOOOo @@@@@@@",
"@@@@@@@@ oooOOOOOOOOOOOo @@@@@@@",
"@@@@@@@@ ooOOOOOOOOOOOOo @@@@@@@",
"@@@@@@@@ oOOOOOOOOOOOOOo @@@@@@@",
"@@@@@@@@ oOOOOOOOOOOOOOo @@@@@@@",
"@@@@@@@@ oOOOO+++++++++o @@@@@@@",
"@@@@@@@@ ooOOO+Ooooooooo @@@@@@@",
"@@@@@@@@ oooOO+o         @@@@@@@",
"@@@@@@@@  oooO+Ooooo ooo @@@@@@@",
"@@@@@@@@   ooO+++++o o+o @@@@@@@",
"@@@@@@@@@@ .ooOOOOOo.oOo @@@@@@@",
"@@@@@@@@@@ ........XXX.. @@@@@@@",
"@@@@@@@@@@ .ooooooooooo. @@@@@@@",
"@@@@@@@@.. ooooooooooooo @@@@@@@",
"@@@@@@@@.. ooooooooooooo @@@@@@@",
"@@@@@@@@.. ooooo     ooo @@@@@@@",
"@@@@@@@@.. oooo..   ooo@@@@@@@@@",
"@@@@@@.... ooo ... ooo @@@@@@@@@",
"@@@@@@@@@@  o@@@@@  o@@@@@@@@@@@",
"@@@@@@@@@@   @@@@@   @@@@@@@@@@@",
"@@@@@@@@@@@@@@@@@@@@@@@@@@@@@@@@",
"@@@@@@@@@@@@@@@@@@@@@@@@@@@@@@@@",
"@@@@@@@@@@@@@@@@@@@@@@@@@@@@@@@@",
"@@@@@@@@@@@@@@@@@@@@@@@@@@@@@@@@",
"@@@@@@@@@@@@@@@@@@@@@@@@@@@@@@@@"
};
