/* XPM */
static char *f968a1763daa405dfea1ea3f42990d15gxjw2t8jVMqjofSc[] = {
/* columns rows colors chars-per-pixel */
"16 16 7 1 ",
"  c None",
". c #060608",
"X c #AC3232",
"o c #DF7126",
"O c #847E87",
"+ c #9BADB7",
"@ c white",
/* pixels */
"       .        ",
"     ..X.       ",
"     .XO....    ",
"     .OO++++.   ",
"    .O++++++.   ",
"    .+++++++.   ",
"    .++@@@@@.   ",
"    .O+@.....   ",
"    ..O@@@.@.   ",
"     .XXXXoX.   ",
"    X.OOOOOO.   ",
"    X.OO...O.   ",
"   XX.O.X.O.    ",
"     ..  ..     ",
"                ",
"                "
};
