/* XPM */
static char *slime_idle_anim_f01628169394[] = {
/* columns rows colors chars-per-pixel */
"32 32 5 1 ",
"  c None",
". c black",
"X c #008000",
"o c #008080",
"O c #808080",
/* pixels */
"                                ",
"                                ",
"                                ",
"                                ",
"                                ",
"                                ",
"          ...........           ",
"          ..XXXXXXX..           ",
"      ....XoooooooooX....       ",
"      ...XoooooooooooX...       ",
"    ..XXXoooooooooooooXXX..     ",
"    .XoooooooooooooooooooX.     ",
"  ..XoooooooooooooooooooooX..   ",
"  .XoooOOOOOoooooooooooooooX.   ",
"..XooooOOOOOooooooooooooooooX.. ",
"..oooOOOOOOOooooooooooooooooo.. ",
".XoooOOOOOoooooooooooooooooooX. ",
".XoooOOOOOoooooooooooXXXXXoooX. ",
".XooooooXXXXXXXXXXXXX....XoooX. ",
".XooooooXXXX...XXXXXX....XoooX. ",
".XooXXXXXXX.....XXXXX.....XooX. ",
"..ooXXXXXXX.....XXXXXX...XXoo.. ",
"..XXXXXXXXX.....XXXXXXXXXXXXX.. ",
"  .XXXXXXXXX...XXXXXXXXXXXXX.   ",
"  ..XXXXXXXXXXXXXXXXXXXXXXX..   ",
"    ...XXXXXXXXXXXXXXXXX...     ",
"    ....XXXXXXXXXXXXXXX....     ",
"        ...............         ",
"        ...............         ",
"                                ",
"                                ",
"                                "
};
