/* XPM */
static char *slime_idle_anim_f31628169319[] = {
/* columns rows colors chars-per-pixel */
"32 32 5 1 ",
"  c None",
". c black",
"X c #008000",
"o c #008080",
"O c #808080",
/* pixels */
"                                ",
"                                ",
"                                ",
"                                ",
"                                ",
"                                ",
"          ...........           ",
"          ..XXXXXXX..           ",
"      ....XoooooooooX....       ",
"      ...XoooooooooooX...       ",
"    ..XXXoooooooooooooXXX..     ",
"    .XoooooooooooooooooooX.     ",
"  ..XoooooooooooooooooooooX..   ",
"  .XoooOOOOOoooooooooooooooX.   ",
"..XooooOOOOOooooooooooooooooX.. ",
"..oooOOOOOOOoooooooooXXXXXooo.. ",
".XoooOOOOOoooooooooooX...XoooX. ",
".XoooOOOOOoXXXXXoooooX...XoooX. ",
".XooooooXXX.....XXXXX....XoooX. ",
".XooooooXXX.....XXXXXX...XoooX. ",
".XooXXXXXXX.....XXXXXXXXXXXooX. ",
"..ooXXXXXXXX...XXXXXXXXXXXXoo.. ",
"..XXXXXXXXXXXXXXXXXXXXXXXXXXX.. ",
"  .XXXXXXXXXXXXXXXXXXXXXXXXX.   ",
"  ..XXXXXXXXXXXXXXXXXXXXXXX..   ",
"    ...XXXXXXXXXXXXXXXXX...     ",
"    ....XXXXXXXXXXXXXXX....     ",
"        ...............         ",
"        ...............         ",
"                                ",
"                                ",
"                                "
};
