/* XPM */
static char *result[] = {
/* columns rows colors chars-per-pixel */
"32 32 139 2 ",
"   c #323B4D",
".  c #333B4D",
"X  c #363F52",
"o  c #364052",
"O  c #374053",
"+  c #374154",
"@  c #384154",
"#  c #384155",
"$  c #384255",
"%  c #394356",
"&  c #3A4459",
"*  c #3A4559",
"=  c #3B4559",
"-  c #3B465A",
";  c #3C465B",
":  c #3C475B",
">  c #3D475C",
",  c #3D485C",
"<  c #3D485D",
"1  c #3E495D",
"2  c #3F495D",
"3  c #3F4A5F",
"4  c #3F4A60",
"5  c #404A5F",
"6  c #404B60",
"7  c #414C61",
"8  c #424C61",
"9  c #414D63",
"0  c #424C62",
"q  c #424D62",
"w  c #434D62",
"e  c #424D63",
"r  c #424E63",
"t  c #424D64",
"y  c #424E64",
"u  c #424E65",
"i  c #434F65",
"p  c #445066",
"a  c #445067",
"s  c #455167",
"d  c #455169",
"f  c #455269",
"g  c #465268",
"h  c #465269",
"j  c #46536A",
"k  c #49556C",
"l  c #48556D",
"z  c #49556D",
"x  c #49566D",
"c  c #49566E",
"v  c #4A576E",
"b  c #4A566F",
"n  c #4A576F",
"m  c #4B5870",
"M  c #4B5872",
"N  c #4C5871",
"B  c #4C5971",
"V  c #4C5972",
"C  c #4D5972",
"Z  c #4C5973",
"A  c #4D5A72",
"S  c #4D5A73",
"D  c #4E5B73",
"F  c #4E5B74",
"G  c #4E5C77",
"H  c #4F5C78",
"J  c #4F5D78",
"K  c #505D79",
"L  c #505E79",
"P  c #515E79",
"I  c #505E7A",
"U  c #515E7A",
"Y  c #515F7B",
"T  c #53617D",
"R  c #53617E",
"E  c #53627E",
"W  c #54617D",
"Q  c #54627F",
"!  c #57657F",
"~  c #556381",
"^  c #556481",
"/  c #576683",
"(  c #586580",
")  c #586681",
"_  c #596681",
"`  c #586683",
"'  c #586784",
"]  c #596784",
"[  c #586785",
"{  c #596887",
"}  c #5C6A86",
"|  c #5C6B87",
" . c #596888",
".. c #5A6988",
"X. c #5A6989",
"o. c #5A6A89",
"O. c #5B6B8A",
"+. c #5C6B8B",
"@. c #5D6C8B",
"#. c #5E6D8C",
"$. c #5E6D8D",
"%. c #5E6E8D",
"&. c #5F6E8E",
"*. c #5F6F8E",
"=. c #606E8B",
"-. c #606F8B",
";. c #616F8B",
":. c #606F8C",
">. c #616F8C",
",. c #606F8D",
"<. c #606F8E",
"1. c #606F8F",
"2. c #60708F",
"3. c #627190",
"4. c #647393",
"5. c #657491",
"6. c #657492",
"7. c #657592",
"8. c #647493",
"9. c #667593",
"0. c #647494",
"q. c #657595",
"w. c #667696",
"e. c #677696",
"r. c #677797",
"t. c #6A7A9A",
"y. c #6B7B9B",
"u. c #6B7B9C",
"i. c #6C7C9C",
"p. c #6D7D9D",
"a. c #6D7D9E",
"s. c #6E7E9F",
"d. c #6F7F9F",
"f. c #6F80A0",
"g. c #7080A1",
"h. c #7081A1",
"j. c #7081A2",
"k. c #7181A2",
"l. c #7182A2",
/* pixels */
"i 3 O     . . . . . . . .     O 3 3 O     . . . . . . . . . . . ",
"i y e q q q q q q q q q q q q e y y e q q q q q q q q q q q q q ",
"r x ) >.>.-.-.-.-.-.-.-.-.>.>.) z z ) >.>.-.-.-.-.-.-.-.-.=.=.=.",
"9 D 6.j.a.y.u.u.y.y.u.u.y.a.j.6.A A 6.j.a.y.u.u.y.y.u.u.y.p.f.k.",
"9 F 9.s.q.1.2.2.1.1.2.2.1.q.s.7.A A 7.s.q.1.2.2.1.1.2.2.1.0.p.l.",
"< h ( | W H H I T T I H H W | ! g g ! | W H H I T T I H H T } =.",
"o % 2 6 , - - 3 d d 3 - - , 6 2 % % 2 6 , - - 3 d d 3 - - > 5 7 ",
"w q 8 8 8 8 8 q r r q 8 8 8 8 8 q q 8 8 8 8 8 q r r q 8 8 8 8 7 ",
">.;.-.=.-.>.>.) k k ) >.>.-.=.-.;.;.-.=.-.>.>.) k k ) >.>.-.=.=.",
"y.y.y.y.y.p.g.5.C A 6.g.p.y.y.y.y.y.y.y.y.p.g.5.C C 5.g.p.y.y.y.",
"*.*.*.*.&.8.p.5.A A 6.a.0.&.*.*.*.*.*.*.&.8.p.5.A A 5.p.8.&.*.*.",
"{  ... .{ $.r.,.B v } 3.@. . ... . ... .{ $.r.,.N N ,.r.$.{  ...",
"..........+.&.] b s v P / o.X.............+.&.' c c ' &.+.......",
"Q R U K K K K M u < , t M L K U R R U K K K K M y y M K K K K K ",
"l d 4 ; ; ; ; = $ o X + = ; ; 4 f f 4 ; ; ; ; * @ @ * ; ; ; ; ; ",
"y e q 8 8 q 0 q q q q q q 8 8 q r r q 8 8 q 0 q q q q 0 q 0 8 8 ",
"9 x ) >.>.-.-.;.>.>.>.>.;.>.>.) k k ) >.>.-.-.;.>.>.;.-.-.-.=.=.",
"9 S 6.g.p.y.y.y.y.y.y.y.y.p.g.5.C C 5.g.p.y.y.y.y.y.y.y.y.i.d.h.",
"9 S 6.p.8.*.1.1.<.*.*.*.&.8.p.5.A A 5.p.8.&.*.*.*.*.*.*.&.4.i.h.",
"9 V ,.r.%.[ ~ ~ [ .... .{ $.r.,.N N ,.r.$.{  ... . ... .{ #.w.t.",
"y n ' *.+.^ Z Z ^ X.X.....+.&.' c c ' &.+.................O.$.1.",
"1 y M L I M e i G E Y K K K K M y y M K K K K U R R U K K K J J ",
"o # * ; : & + = a h 4 ; ; ; ; * @ @ * ; ; ; ; 4 f f 4 ; ; ; ; ; ",
"q q q 0 0 q q e r e q 8 8 q 0 q q q q 0 q 8 8 q r r q 8 8 q q q ",
">.>.;.-.-.>.>._ z k ) >.>.-.-.;.>.>.;.-.-.>.>.) k k ) >.>.-.-.-.",
"y.y.y.y.y.p.g.5.C C 5.g.p.y.y.y.y.y.y.y.y.p.g.5.C C 5.g.p.y.y.y.",
"*.*.*.*.&.8.p.5.A A 5.p.8.&.*.*.*.*.*.*.&.8.p.5.A A 5.p.8.&.*.*.",
"{ { { { { $.e.:.m m :.e.$.{ { { { { { { { $.e.:.m m :.e.$.{ { { ",
"..........O.%.` c c ` %.O.................O.%.` c c ` %.O.......",
"Q Q Q Q Q Q Q J j j J Q Q Q Q Q Q Q Q Q Q Q Q J j j J Q Q Q Q Q ",
"l l l l l l l j p p j l l l l l l l l l l l l j p p j l l l l l ",
"r r r r r r r y y y y r r r r r r r r r r r r y y y y r r r r r "
};
